# xmcd
#
# Track frame offsets:
# 182
# 17402
# 32667
# 48292
# 67462
# 80572
# 92630
# 102275
# 115492
# 122235
# 135887
# 148637
# 166102
#
# Disc length: 2445 seconds
#
#
# Revision: 0
# Processed by: cddbd v1.5.2PL0 Copyright (c) Steve Scherf et al.
# Submitted via: FreeRIP 2.951 
#
DISCID=ab098b0d
DTITLE=Pino Daniele - Terra mia
DYEAR=1977
DGENRE=Rock
TTITLE0=Napule è
TTITLE1='Na tazzulella 'e cafè
TTITLE2=Ci sta chi ce pensa
TTITLE3=Suonno d'ajere
TTITLE4=Maronna mia
TTITLE5=Saglie saglie
TTITLE6=Terra mia
TTITLE7=Che calore
TTITLE8=Chi po dicere
TTITLE9=Fortunato
TTITLE10=Cammina cammina
TTITLE11='O padrone
TTITLE12=Libertà
EXTD=
EXTT0=
EXTT1=
EXTT2=
EXTT3=
EXTT4=
EXTT5=
EXTT6=
EXTT7=
EXTT8=
EXTT9=
EXTT10=
EXTT11=
EXTT12=
PLAYORDER=
